<?xml version="1.0" encoding="UTF-8"?>
<svg width="712px" height="712px" viewBox="0 0 712 712" version="1.1" xmlns="http://www.w3.org/2000/svg" xmlns:xlink="http://www.w3.org/1999/xlink">
    <title>Logo-ShieldOnly-Primary</title>
    <g id="Logo-ShieldOnly-Primary" stroke="none" stroke-width="1" fill="none" fill-rule="evenodd">
        <g id="Logo/ShieldOnly/Primary" transform="translate(178, 197)">
            <g id="shield/full-color" transform="translate(0, -0)">
                <path d="M0,2.84217094e-14 L0,224.296885 C0,275.79853 41.8751809,317.6737 93.3768403,317.6737 L356.1797,317.6737 L356.1797,93.3768148 C356.1797,41.8751695 314.304519,2.84217094e-14 262.80286,2.84217094e-14 L0,2.84217094e-14 L0,2.84217094e-14 Z" id="Outer-Shield" fill="#26D07C" fill-rule="nonzero"></path>
                <path d="M14.4397176,14.4397136 L262.80286,14.4397136 C306.122012,14.4397136 341.739982,50.0576739 341.739982,93.3768148 L341.739982,303.233986 L93.3768403,303.233986 C50.0576876,303.233986 14.4397176,267.616026 14.4397176,224.296885 L14.4397176,14.4397136" id="Middle-Shield" fill="#FFFFFF"></path>
                <path d="M28.8794351,28.3981035 L28.8794351,221.408942 C28.8794351,257.98955 58.7215181,288.312949 95.7834599,288.312949 L327.300265,288.312949 L327.300265,95.30211 C327.300265,58.7215021 297.458182,28.3981035 260.39624,28.3981035 L28.8794351,28.3981035 Z" id="Inner-Shield" fill="#1D4094" fill-rule="nonzero"></path>
                <g id="53-lockup" transform="translate(62.5721, 62.5721)" fill="#FFFFFF">
                    <g transform="translate(0, 0)">
                        <path d="M203.537609,126.415485 C229.476698,121.150012 233.392539,101.05149 228.98826,88.1288757 C225.072419,78.0791617 212.34802,65.635062 196.684655,65.635062 L137.463232,65.635062 C160.467062,73.2922027 166.341287,92.9140222 166.341287,92.9140222 C166.341287,92.9140222 175.640136,119.71628 139.910054,126.894 C139.910054,126.894 161.936082,136.465199 165.851923,154.173866 C171.725221,180.975218 137.463232,188.153844 137.463232,188.153844 L195.217489,188.153844 C222.625597,188.153844 233.392539,167.094668 229.967916,152.737416 C227.030803,137.90165 216.263861,131.680959 203.537609,126.415485" id="Fill-4"></path>
                        <polygon id="Fill-6" points="91.4866716 192.529515 141.89753 0 130.228219 0 79.8173605 192.529515"></polygon>
                        <path d="M63.7390779,126.894453 C79.3047173,126.894453 96.8147951,110.017373 92.4377362,88.9205791 C89.5178547,74.3855158 75.4443945,61.2593912 57.9029994,61.2593912 L0,61.2593912 C24.3206782,69.2291728 30.1576779,90.3259667 30.1576779,90.3259667 C30.1576779,90.3259667 39.8853965,119.39343 2.43262048,126.894453 L63.7390779,126.894453 Z" id="Fill-8"></path>
                        <polygon id="Fill-10" points="0 48.1323788 84.2516583 48.1323788 84.2516583 4.3756708 0 4.3756708"></polygon>
                    </g>
                </g>
            </g>
        </g>
    </g>
</svg>